HIERARCHY
ROOT Hips
{
	OFFSET 0.00000 0.00000 0.00000
	CHANNELS 6 Xposition Yposition Zposition Zrotation Yrotation Xrotation 
	JOINT LHipJoint
	{
		OFFSET 0 0 0
		CHANNELS 3 Zrotation Yrotation Xrotation
		JOINT LeftUpLeg
		{
			OFFSET 1.75344 -1.53157 0.77399
			CHANNELS 3 Zrotation Yrotation Xrotation
			JOINT LeftLeg
			{
				OFFSET 2.25415 -6.19323 0.00000
				CHANNELS 3 Zrotation Yrotation Xrotation
				JOINT LeftFoot
				{
					OFFSET 2.30342 -6.32861 0.00000
					CHANNELS 3 Zrotation Yrotation Xrotation
					JOINT LeftToeBase
					{
						OFFSET 0.10958 -0.30108 1.49206
						CHANNELS 3 Zrotation Yrotation Xrotation
						End Site
						{
							OFFSET 0.00000 -0.00000 0.77783
						}
					}
				}
			}
		}
	}
	JOINT RHipJoint
	{
		OFFSET 0 0 0
		CHANNELS 3 Zrotation Yrotation Xrotation
		JOINT RightUpLeg
		{
			OFFSET -1.81912 -1.53156 0.77399
			CHANNELS 3 Zrotation Yrotation Xrotation
			JOINT RightLeg
			{
				OFFSET -2.22882 -6.12365 0.00000
				CHANNELS 3 Zrotation Yrotation Xrotation
				JOINT RightFoot
				{
					OFFSET -2.21943 -6.09785 0.00000
					CHANNELS 3 Zrotation Yrotation Xrotation
					JOINT RightToeBase
					{
						OFFSET -0.18931 -0.52012 1.59379
						CHANNELS 3 Zrotation Yrotation Xrotation
						End Site
						{
							OFFSET -0.00000 -0.00000 0.84686
						}
					}
				}
			}
		}
	}
	JOINT LowerBack
	{
		OFFSET 0 0 0
		CHANNELS 3 Zrotation Yrotation Xrotation
		JOINT Spine
		{
			OFFSET -0.00200 1.66634 -0.14248
			CHANNELS 3 Zrotation Yrotation Xrotation
			JOINT Spine1
			{
				OFFSET -0.00875 1.64542 0.09514
				CHANNELS 3 Zrotation Yrotation Xrotation
				JOINT Neck
				{
					OFFSET 0 0 0
					CHANNELS 3 Zrotation Yrotation Xrotation
					JOINT Neck1
					{
						OFFSET 0.02257 1.59605 0.00839
						CHANNELS 3 Zrotation Yrotation Xrotation
						JOINT Head
						{
							OFFSET -0.10214 1.57530 -0.23335
							CHANNELS 3 Zrotation Yrotation Xrotation
							End Site
							{
								OFFSET -0.03588 1.60717 -0.08062
							}
						}
					}
				}
				JOINT LeftShoulder
				{
					OFFSET 0 0 0
					CHANNELS 3 Zrotation Yrotation Xrotation
					JOINT LeftArm
					{
						OFFSET 2.54983 1.10186 0.40078
						CHANNELS 3 Zrotation Yrotation Xrotation
						JOINT LeftForeArm
						{
							OFFSET 4.28840 -0.00000 0.00000
							CHANNELS 3 Zrotation Yrotation Xrotation
							JOINT LeftHand
							{
								OFFSET 3.06552 -0.00000 -0.00000
								CHANNELS 3 Zrotation Yrotation Xrotation
								JOINT LeftFingerBase
								{
									OFFSET 0 0 0
									CHANNELS 3 Zrotation Yrotation Xrotation
									JOINT LeftHandIndex1
									{
										OFFSET 0.75304 -0.00000 0.00000
										CHANNELS 3 Zrotation Yrotation Xrotation
										End Site
										{
											OFFSET 0.60712 -0.00000 0.00000
										}
									}
								}
								JOINT LThumb
								{
									OFFSET 0 0 0
									CHANNELS 3 Zrotation Yrotation Xrotation
									End Site
									{
										OFFSET 0.61639 -0.00000 0.61639
									}
								}
							}
						}
					}
				}
				JOINT RightShoulder
				{
					OFFSET 0 0 0
					CHANNELS 3 Zrotation Yrotation Xrotation
					JOINT RightArm
					{
						OFFSET -2.60909 1.35448 0.21802
						CHANNELS 3 Zrotation Yrotation Xrotation
						JOINT RightForeArm
						{
							OFFSET -4.52172 -0.00000 -0.00000
							CHANNELS 3 Zrotation Yrotation Xrotation
							JOINT RightHand
							{
								OFFSET -2.89140 -0.00000 0.00000
								CHANNELS 3 Zrotation Yrotation Xrotation
								JOINT RightFingerBase
								{
									OFFSET 0 0 0
									CHANNELS 3 Zrotation Yrotation Xrotation
									JOINT RightHandIndex1
									{
										OFFSET -0.68054 -0.00000 0.00000
										CHANNELS 3 Zrotation Yrotation Xrotation
										End Site
										{
											OFFSET -0.54867 -0.00000 0.00000
										}
									}
								}
								JOINT RThumb
								{
									OFFSET 0 0 0
									CHANNELS 3 Zrotation Yrotation Xrotation
									End Site
									{
										OFFSET -0.55705 -0.00000 0.55705
									}
								}
							}
						}
					}
				}
			}
		}
	}
}
MOTION
Frames: 10
Frame Time: 0.0588235
0.00 0.00 0.00 -178.5090 -19.3088 -176.6940 0.0000 0.0000 0.0000 -19.8952 3.6057 3.6728 3.7655 11.8417 35.1741 0.3075 -9.1480 17.5001 1.0897 6.6340 18.6356 0.0000 0.0000 0.0000 33.4685 11.0203 -11.3637 -1.1111 -6.6970 18.8207 0.7068 -27.8175 -35.2380 -2.6040 -10.0245 29.0563 -6.0794 -0.6366 0.4046 -0.7090 -1.4676 -6.1058 2.7627 -0.5577 -6.4919 -9.3864 -7.1006 0.7533 13.2200 -11.2013 8.8692 5.1268 -5.6981 3.7642 0.0000 0.0000 0.0000 -83.6831 21.2922 23.6884 19.8374 -30.4460 -5.4487 -0.0000 -0.0000 23.6739 -2.1807 -27.8515 1.0192 -7.1250 0.0000 -0.0000 -19.0483 3.3689 18.9953 0.0000 0.0000 0.0000 84.3192 -18.9523 31.2698 -25.4543 36.6647 -8.5597 0.0000 0.0000 13.3847 -3.6562 -55.5882 3.0177 7.1250 -0.0000 -0.0000 79.0163 -73.2320 -61.3656
0.00 0.00 0.00 -175.8230 6.3652 -178.7600 0.0000 0.0000 0.0000 -6.6793 -41.1755 -22.6953 1.7840 8.4010 23.9387 1.6907 18.5963 -37.0521 0.1871 2.7855 7.6821 0.0000 0.0000 0.0000 39.3585 4.6533 21.2548 0.0000 -0.0000 0.0000 1.3693 -21.6792 -16.8411 -1.5606 -7.8837 22.3615 -0.4010 -1.4938 1.2394 2.4645 -1.7192 -4.2308 2.8651 -0.7030 -4.9780 3.5488 3.5190 -2.9170 -1.2070 5.1041 12.4712 -0.7627 2.8035 4.8096 -0.0000 0.0000 0.0000 -88.4837 16.0536 10.5226 18.5206 -28.8186 -4.7976 -0.0000 -0.0000 18.5332 9.0119 -31.0034 -4.6702 -7.1250 0.0000 -0.0000 -12.7478 -0.6648 13.2251 -0.0000 0.0000 0.0000 81.2252 -10.1303 37.1886 -18.9659 29.3763 -5.0141 0.0000 0.0000 16.7655 1.9827 -52.5707 -1.5747 7.1250 -0.0000 -0.0000 72.5707 -70.5179 -51.9699
0.00 0.00 0.00 -188.0130 18.5088 -185.1960 0.0000 0.0000 0.0000 -40.0438 -8.4473 8.3257 0.6729 5.2457 14.6106 0.7890 12.7962 -25.8504 0.2015 2.8904 7.9737 0.0000 0.0000 0.0000 14.1958 12.4649 -20.7556 -11.4117 -18.1307 64.1116 -0.6305 -11.2421 -22.9861 -0.0057 -0.4894 1.3447 2.0760 -2.8515 2.7400 -0.0782 -3.5976 -4.4659 -0.9484 -1.8345 -6.3119 4.9279 8.9589 -3.9506 -7.5889 13.8210 15.8731 -2.1615 6.8138 6.3374 -0.0000 0.0000 0.0000 -89.1655 13.7974 13.8220 16.3095 -25.9385 -3.7803 -0.0000 -0.0000 30.6168 14.9043 -25.8799 -6.6266 -7.1250 0.0000 -0.0000 -8.9798 3.6021 8.5047 -0.0000 0.0000 0.0000 79.3728 -17.5771 40.1943 -19.4410 29.9629 -5.2493 0.0000 0.0000 16.2349 -15.5507 -56.4462 13.0565 7.1250 -0.0000 -0.0000 80.8693 -77.6283 -68.1563
0.00 0.00 0.00 -179.5660 -3.3479 -183.2640 0.0000 0.0000 0.0000 -23.9033 -0.5660 3.6461 5.2091 13.6154 41.7182 -0.2805 11.4149 -11.1910 1.4490 7.6093 21.5334 0.0000 0.0000 0.0000 25.3389 25.4008 0.5800 -0.9357 -6.1616 17.2540 -1.0228 -22.8469 -37.9471 -0.2046 2.9126 -8.0357 1.8257 -0.5221 1.8952 3.0488 -0.7055 -3.7583 2.1852 -0.4482 -4.9298 -5.6219 -0.5425 -2.8748 0.0573 -0.6878 9.8405 0.9704 -0.6790 3.7353 0.0000 -0.0000 0.0000 -90.1299 12.5880 25.8658 18.3465 -28.5985 -4.7139 -0.0000 -0.0000 27.2727 8.6405 -30.6429 -4.4288 -7.1250 0.0000 -0.0000 -12.9387 -0.2668 13.3430 0.0000 -0.0000 0.0000 79.9711 -17.0725 28.7385 -17.8713 27.9920 -4.4887 0.0000 0.0000 18.3047 -5.5364 -56.8794 4.6411 7.1250 -0.0000 -0.0000 82.9620 -74.0458 -66.2107
0.00 0.00 0.00 -176.0120 -6.7124 -185.2230 0.0000 0.0000 0.0000 -17.1822 -1.3595 -5.9528 10.2662 17.5569 60.3745 -0.7164 15.7591 -0.0148 1.8574 8.5625 24.4361 0.0000 0.0000 0.0000 31.4018 19.5031 6.6110 -0.3702 -3.9079 10.8177 -0.5535 -23.4717 -36.2279 -0.3741 3.9282 -10.8747 4.8524 0.8980 2.4052 3.2462 1.3321 -3.4291 0.5690 0.4455 -4.8673 -8.8528 -3.2922 -0.6514 2.8435 -4.6622 9.1696 2.3492 -2.6492 3.4246 0.0000 -0.0000 0.0000 -90.3396 11.6376 24.1734 19.2212 -29.6926 -5.1400 -0.0000 -0.0000 26.4350 9.7131 -31.1860 -5.0651 -7.1250 0.0000 -0.0000 -12.3620 -0.9338 12.8631 0.0000 -0.0000 0.0000 79.4320 -15.3553 28.8949 -17.4024 27.3852 -4.2708 0.0000 0.0000 19.7391 -5.5258 -56.8740 4.6320 7.1250 -0.0000 -0.0000 82.9430 -74.0416 -66.1869
0.00 0.00 0.00 -172.5960 -9.0116 -186.8500 0.0000 0.0000 0.0000 -11.7139 -10.3725 -23.0756 16.7504 19.7449 80.4598 -0.2131 22.8492 14.5210 2.9393 10.5961 30.9295 0.0000 0.0000 0.0000 37.3786 10.3495 13.8091 0.0000 0.0000 -0.0000 0.3246 -23.7311 -31.3415 -0.2030 2.9011 -8.0036 6.6658 3.5466 2.6925 2.9528 4.9707 -2.8749 -0.9477 2.2210 -4.1884 -13.4644 -7.5544 1.9030 9.2122 -11.1472 8.2309 4.5893 -5.8204 3.4020 0.0000 0.0000 0.0000 -89.3824 11.2516 19.5111 19.9457 -30.5769 -5.5037 -0.0000 -0.0000 25.7648 4.0278 -30.0192 -2.0176 -7.1250 0.0000 -0.0000 -15.5296 0.8409 15.8982 0.0000 0.0000 0.0000 81.0946 -9.7701 25.0422 -17.7812 27.8761 -4.4464 0.0000 0.0000 19.5412 -12.7169 -54.9739 10.4701 7.1250 -0.0000 -0.0000 74.4732 -76.4467 -60.6487
0.00 0.00 0.00 -181.8510 -150.8450 -176.1890 0.0000 0.0000 0.0000 -6.1334 -20.5295 -27.8621 5.0781 13.4712 41.1589 -1.1470 18.6470 -4.9897 2.0811 9.0331 25.8988 0.0000 0.0000 0.0000 29.5926 -2.8235 11.1578 0.0000 0.0000 -0.0000 0.1237 -11.0255 -13.7013 -0.0445 -1.3616 3.7443 -1.0214 -3.6091 5.0159 1.8611 -4.8275 -5.0518 3.0886 -2.2610 -7.8667 8.5676 9.5216 -3.6501 -6.6987 12.8549 9.1582 -2.6923 6.3427 4.3232 0.0000 -0.0000 0.0000 -82.8401 8.9763 21.3203 19.6009 -30.1585 -5.3294 -0.0000 -0.0000 18.0994 3.5005 -29.5858 -1.7299 -7.1250 0.0000 -0.0000 -15.8208 1.3065 16.0862 0.0000 -0.0000 0.0000 67.3248 -9.6985 15.4858 -21.9283 32.8959 -6.5469 0.0000 0.0000 9.7034 -4.2516 -59.6138 3.6693 7.1250 -0.0000 -0.0000 92.5364 -73.5858 -75.5302
0.00 0.00 0.00 -185.1010 -175.4710 -181.0570 0.0000 0.0000 0.0000 -8.8255 -22.5528 -28.3413 4.5995 12.9180 39.0625 0.1153 10.4155 -16.5060 0.3399 -3.7465 -10.3646 0.0000 0.0000 0.0000 40.5380 5.2915 13.3529 -0.0186 -0.8795 2.4172 4.5442 -37.6281 -32.4085 -2.4091 -9.6708 27.9170 2.8656 2.6432 7.1731 1.1561 3.9385 -3.9716 -0.9360 1.8035 -8.1049 -5.5542 -4.0364 -3.0532 7.2232 -6.0951 15.2286 2.8239 -2.8438 5.4633 -0.0000 -0.0000 0.0000 -85.3416 16.6730 27.1796 18.0118 -28.1723 -4.5548 -0.0000 -0.0000 17.9440 5.4313 -33.0567 -2.9689 -7.1250 0.0000 -0.0000 -14.8444 -2.2291 15.9473 -0.0000 -0.0000 0.0000 87.0160 -8.8725 34.1822 -18.6944 29.0371 -4.8816 0.0000 0.0000 15.9237 1.1629 -51.5780 -0.9111 7.1250 -0.0000 -0.0000 69.4480 -70.4648 -49.0570
0.00 0.00 0.00 -175.5390 -165.8690 -184.0490 0.0000 0.0000 0.0000 -32.0505 -9.7142 -0.0311 0.7611 5.5713 15.5455 0.2649 13.4738 -21.9970 0.0017 -0.2675 -0.7350 0.0000 0.0000 0.0000 17.0877 0.8931 11.7820 -3.8038 -11.8946 35.3602 3.0533 -29.3935 -16.0760 -1.6867 -8.1805 23.2637 8.4413 1.2739 3.6810 -0.0777 2.3252 -5.5507 -5.0455 0.6435 -7.6201 -4.4363 1.2919 -4.2830 0.0557 2.2462 20.4298 0.9208 0.7413 6.8876 0.0000 -0.0000 0.0000 -86.5502 16.6670 20.3273 19.3821 -29.8907 -5.2199 -0.0000 -0.0000 15.1687 5.2656 -33.9098 -2.9433 -7.1250 0.0000 -0.0000 -14.9736 -3.0327 16.2998 0.0000 -0.0000 0.0000 81.8157 -17.0395 28.5255 -19.0714 29.5073 -5.0660 0.0000 0.0000 17.0860 -1.1642 -55.3392 0.9576 7.1250 -0.0000 -0.0000 79.0676 -72.3104 -60.3243
0.00 0.00 0.00 -185.9210 -179.5910 -178.2760 0.0000 0.0000 0.0000 -22.2117 -2.7325 -24.0613 2.7499 10.2787 29.8842 2.4387 21.0992 -42.7924 5.7080 14.1392 43.7981 0.0000 0.0000 0.0000 34.8148 2.9728 8.8259 -0.8398 -5.8456 16.3370 1.7707 -25.4097 -22.0649 -0.5573 -4.7820 13.2878 3.3778 -3.3048 2.7117 5.9550 -3.8050 -6.3969 4.7837 -1.8702 -8.0753 10.7319 7.1480 0.7735 -10.9617 9.7504 0.5539 -4.8600 4.8888 1.1119 0.0000 -0.0000 0.0000 -90.4799 14.1186 21.3468 20.4495 -31.1801 -5.7623 -0.0000 -0.0000 14.3679 3.9592 -35.2440 -2.2871 -7.1250 0.0000 -0.0000 -15.7363 -4.1725 17.4924 0.0000 -0.0000 0.0000 69.0126 -7.2625 17.7213 -19.2507 29.7290 -5.1546 0.0000 0.0000 14.5021 3.4751 -53.3405 -2.7889 7.1250 -0.0000 -0.0000 75.4383 -70.2331 -54.3007
